<svg width="415" height="34" viewBox="0 0 415 34" fill="none" xmlns="http://www.w3.org/2000/svg">
<path d="M165.8 1.90002V28H182.1V33.5H159.9V1.90002H165.8Z" fill="#0F60AD"/>
<path d="M219.2 18.1C219.1 25.8 214.1 33.5 203 33.5C191.9 33.5 186.7 26 186.7 18.1C186.7 10.3 192 2.40002 203 2.40002C213.8 2.40002 219.3 10.3 219.2 18.1ZM192.5 18.2C192.6 23.1 195.4 28.4 202.9 28.4C210.4 28.4 213.2 23.1 213.3 18.2C213.4 13.2 210.4 7.50003 202.9 7.50003C195.5 7.50003 192.4 13.2 192.5 18.2Z" fill="#0F60AD"/>
<path d="M249.8 10.3C247.7 8.40002 244.5 7.30002 241.8 7.30002C235 7.30002 230.9 12.2 230.9 18.3C230.9 23.2 233.9 28.3 241.8 28.3C244.3 28.3 246.5 27.8 248.9 25.9V20.6H240.8V15.6H254.4V28.2C251.3 31.6 247.4 33.6 241.8 33.6C229.9 33.6 225.1 26.2 225.1 18.4C225.1 9.99999 230.7 2.20001 241.8 2.20001C246 2.20001 250.3 3.70002 253.6 6.80002L249.8 10.3Z" fill="#0F60AD"/>
<path d="M262 33.5V1.90002H267.9V33.5H262Z" fill="#0F60AD"/>
<path d="M296.7 10.1C295.6 8.40001 292.6 6.80002 289.2 6.80002C284.8 6.80002 282.6 8.60002 282.6 10.8C282.6 13.4 285.9 14.1 289.7 14.6C296.3 15.4 302.4 17 302.4 24.1C302.4 30.8 296.2 33.6 289.1 33.6C282.6 33.6 277.7 31.7 275.3 26.3L280.3 23.9C281.7 27.2 285.4 28.6 289.2 28.6C293 28.6 296.5 27.4 296.5 24.1C296.5 21.3 293.4 20.1 289.2 19.7C282.7 19 276.8 17.4 276.8 10.7C276.8 4.60001 283.2 2 289 2C293.9 2 299 3.29999 301.4 7.89999L296.7 10.1Z" fill="#0F60AD"/>
<path d="M318 7.30005H308V1.90002C317.1 1.90002 324.9 1.90002 334 1.90002V7.30005H324V33.5H318V7.30005Z" fill="#0F60AD"/>
<path d="M340.4 33.5V1.90002H346.3V33.5H340.4Z" fill="#0F60AD"/>
<path d="M382.5 29.1C379.2 32.1 375 33.5 370.5 33.5C358.7 33.5 353.8 25.9 353.7 18.1C353.7 10.3 359 2.40002 370.5 2.40002C374.8 2.40002 378.9 3.90003 382.1 7.00003L378.1 10.6C376 8.70004 373.2 7.80005 370.5 7.80005C362.9 7.80005 359.6 13.2 359.6 18.2C359.6 23.1 362.7 28.3 370.5 28.3C373.3 28.3 376.4 27.2 378.5 25.3L382.5 29.1Z" fill="#0F60AD"/>
<path d="M408.6 8.70001C407.5 6.90001 404.5 5.20001 401.1 5.20001C396.7 5.20001 394.5 7.09999 394.5 9.39999C394.5 12.2 397.8 12.9 401.6 13.4C408.2 14.2 414.3 15.9 414.3 23.5C414.3 30.6 408.1 33.6 401 33.6C394.5 33.6 389.6 31.6 387.2 25.8L392.2 23.2C393.6 26.7 397.3 28.2 401.1 28.2C404.9 28.2 408.4 26.9 408.4 23.5C408.4 20.5 405.3 19.3 401.1 18.8C394.6 18 388.7 16.3 388.7 9.20001C388.7 2.70001 395.1 0 400.9 0C405.8 0 410.9 1.40002 413.3 6.30002L408.6 8.70001Z" fill="#0F60AD"/>
<path d="M92.7 1.90002V7.70004L70 7.50003V1.90002H92.7Z" fill="#0F60AD"/>
<path d="M46.8 1.90002V28H63V33.5H40.8V1.90002H46.8Z" fill="#333333"/>
<path d="M117 1.90002H110.5L96.3 33.6H102.8L113.8 8.60004L124.7 33.6H131.2L117 1.90002Z" fill="#333333"/>
<path d="M20.7 1.90002H14.2L0 33.6H6.5L17.5 8.60004L28.4 33.6H34.9L20.7 1.90002Z" fill="#333333"/>
<path d="M92.7 16.1V21.8H75.9V33.6H70V16.1H92.7Z" fill="#333333"/>
</svg>
