<svg width="2722" height="431" viewBox="0 0 2722 431" fill="none" xmlns="http://www.w3.org/2000/svg">
<path d="M1528.79 144.12V269.546H1606.92V296.016H1500.17V144.185L1528.79 144.12Z" fill="#081A6B"/>
<path d="M1784.94 221.865C1784.51 258.909 1760.43 295.953 1707.05 295.953C1653.68 295.953 1628.95 259.73 1628.95 222.081C1628.95 184.431 1654.54 146.565 1707.05 146.565C1759.56 146.565 1785.38 184.453 1784.94 221.865ZM1657.14 222.492C1657.77 246.02 1671.24 271.192 1707.03 271.192C1742.82 271.192 1756.3 245.804 1756.79 222.297C1757.23 198.142 1742.93 171.132 1707.03 171.132C1671.14 171.132 1656.49 198.336 1657.18 222.492H1657.14Z" fill="#081A6B"/>
<path d="M1931.96 184.452C1921.17 175.28 1907.49 170.203 1893.32 170.115C1860.87 170.115 1841.03 193.449 1841.03 222.924C1841.03 246.452 1855.56 270.802 1893.32 270.802C1905.75 271.162 1917.9 267.1 1927.61 259.341V233.974H1888.69V209.819H1953.77V270.197C1938.82 286.351 1919.93 295.974 1893.19 295.974C1836.11 295.974 1812.9 260.573 1812.9 222.924C1812.9 182.593 1839.6 145.354 1893.19 145.354C1914.09 145.274 1934.25 153.1 1949.62 167.26L1931.96 184.452Z" fill="#081A6B"/>
<path d="M1990.64 295.951V144.12H2019.07V295.951H1990.64Z" fill="#081A6B"/>
<path d="M2157.13 183.608C2151.92 175.433 2137.66 167.648 2121.11 167.648C2099.84 167.648 2089.65 176.039 2089.65 186.679C2089.65 199.156 2105.27 202.638 2123.49 204.692C2155.18 208.369 2184.7 216.154 2184.7 250.322C2184.7 282.24 2154.73 295.951 2120.89 295.951C2089.84 295.951 2065.98 286.933 2054.71 260.745L2078.51 249.089C2085.23 264.854 2102.8 271.796 2121.26 271.796C2139.26 271.796 2156.18 265.87 2156.18 250.322C2156.18 236.806 2141.23 231.291 2121.04 229.237C2090 225.755 2061.35 217.992 2061.35 185.857C2061.35 156.403 2092.18 144.315 2120.16 144.12C2143.83 144.12 2168.34 150.456 2179.85 172.557L2157.13 183.608Z" fill="#081A6B"/>
<path d="M2259.19 170.156H2211.07V144.206H2336.08V170.156H2287.9V295.95H2259.25L2259.19 170.156Z" fill="#081A6B"/>
<path d="M2366.68 295.951V144.12H2395.11V295.951H2366.68Z" fill="#081A6B"/>
<path d="M2568.98 274.673C2553.35 289.183 2533.17 295.952 2511.25 295.952C2454.82 295.952 2430.96 259.319 2430.74 222.08C2430.53 184.841 2456.34 146.565 2511.25 146.565C2531.97 146.452 2551.93 154.293 2567.03 168.471L2547.92 185.771C2537.82 176.84 2524.74 172.017 2511.25 172.255C2474.58 172.255 2458.72 198.054 2458.96 221.993C2459.19 245.933 2473.71 270.477 2511.25 270.477C2525.32 270.455 2538.9 265.295 2549.44 255.967L2568.98 274.673Z" fill="#081A6B"/>
<path d="M2694.27 176.86C2689.08 168.21 2674.8 159.95 2658.27 159.95C2637 159.95 2626.81 168.859 2626.81 180.126C2626.81 193.36 2642.43 197.037 2660.65 199.199C2692.35 203.113 2721.84 211.353 2721.84 247.575C2721.84 281.418 2691.89 295.951 2658.03 295.951C2627 295.951 2603.14 286.392 2591.87 258.647L2615.67 246.277C2622.4 262.972 2639.96 270.346 2658.42 270.346C2676.42 270.346 2693.34 264.053 2693.34 247.575C2693.34 233.259 2678.39 227.399 2658.2 225.236C2627.16 221.56 2598.51 213.32 2598.51 179.261C2598.51 148.034 2629.34 135.232 2657.32 135.016C2680.99 135.016 2705.5 141.741 2717.01 165.161L2694.27 176.86Z" fill="#081A6B"/>
<path d="M1177.9 144.251V171.931L1068.78 171.196V144.251H1177.9Z" fill="#081A6B"/>
<path d="M957.313 144.12V269.546H1035.44V296.016H928.688V144.185L957.313 144.12Z" fill="#0CA0D8"/>
<path d="M1294.43 144.077H1263.4L1195.18 295.994H1226.32L1278.96 176.083L1331.45 295.994H1362.73L1294.43 144.077Z" fill="#0CA0D8"/>
<path d="M832.168 144.077H801.056L732.836 295.994H763.95L816.612 176.083L869.08 295.994H900.388L832.168 144.077Z" fill="#0CA0D8"/>
<path d="M1177.9 212.065V239.746H1097.39V295.993H1068.78V212.065H1177.9Z" fill="#0CA0D8"/>
<path d="M123.462 203.74L506.994 207.553L436.549 319.307H73.29L123.462 203.74Z" fill="#0979B0"/>
<path d="M104.777 0H240.597L506.994 430.727H355.287L104.777 0Z" fill="#004173"/>
<path d="M104.777 0C104.777 0 -1.27849 196.098 0.0116765 199.169L73.2899 319.325L171.09 114.04L104.777 0Z" fill="#7CDAF9"/>
</svg>
