<svg width="3374" height="431" viewBox="0 0 3374 431" fill="none" xmlns="http://www.w3.org/2000/svg">
<path d="M150.671 203.87L534.97 207.685L464.386 319.51H100.399L150.671 203.87Z" fill="#BE2929"/>
<path d="M131.958 0H268.037L534.97 431H382.962L131.958 0Z" fill="#A20202"/>
<path d="M131.958 0C131.958 0 25.6926 196.222 26.9853 199.296L100.399 319.528L198.402 114.094L131.958 0Z" fill="#BB0B0B"/>
<path d="M534.97 431H469.005L206.466 0H266.13L534.97 431Z" fill="#004173"/>
<path d="M1527.03 142.026V266.932H1604.97V293.304H1498.46V142.026H1527.03Z" fill="#081A6B"/>
<path d="M1782.55 219.477C1782.14 256.379 1758.11 293.329 1704.84 293.329C1651.58 293.329 1626.9 257.237 1626.9 219.715C1626.9 182.194 1652.46 144.481 1704.84 144.481C1757.23 144.481 1783 182.17 1782.55 219.477ZM1655.06 220.096C1655.68 243.539 1669.12 268.624 1704.84 268.624C1740.57 268.624 1753.98 243.348 1754.41 219.906C1754.84 195.844 1740.57 168.924 1704.84 168.924C1669.12 168.924 1654.47 196.035 1655.06 220.096Z" fill="#081A6B"/>
<path d="M1929.22 182.172C1918.46 173.029 1904.81 167.968 1890.68 167.878C1858.22 167.878 1838.51 191.129 1838.51 220.479C1838.51 243.945 1853.02 268.126 1890.68 268.126C1903.07 268.484 1915.19 264.44 1924.88 256.714V231.438H1886.15V207.376H1951.08V267.506C1936.14 283.611 1917.31 293.212 1890.68 293.212C1833.74 293.212 1810.59 257.929 1810.59 220.408C1810.59 180.242 1837.22 143.149 1890.68 143.149C1911.53 143.071 1931.63 150.857 1946.98 164.947L1929.22 182.172Z" fill="#081A6B"/>
<path d="M1987.76 293.304V142.026H2016.11V293.304H1987.76Z" fill="#081A6B"/>
<path d="M2153.84 181.359C2148.66 173.212 2134.36 165.469 2117.92 165.469C2096.68 165.469 2086.51 173.831 2086.51 184.528C2086.51 196.964 2102.1 200.418 2120.28 202.467C2151.9 206.136 2181.33 213.878 2181.33 247.922C2181.33 279.726 2151.45 293.4 2117.68 293.4C2086.66 293.4 2062.79 284.419 2051.67 258.309L2075.54 246.707C2082.27 262.406 2099.78 269.339 2118.21 269.339C2136.15 269.339 2153.05 263.407 2153.05 247.898C2153.05 234.438 2138.11 228.839 2117.99 226.909C2086.97 223.431 2058.45 215.689 2058.45 183.67C2058.45 154.32 2089.19 142.289 2117.11 142.099C2140.71 142.099 2165.17 148.412 2176.65 170.425L2153.84 181.359Z" fill="#081A6B"/>
<path d="M2255.67 167.946H2207.6V142.026H2332.22V167.946H2284.16V293.304H2255.52L2255.67 167.946Z" fill="#081A6B"/>
<path d="M2362.89 293.304V142.026H2391.27V293.304H2362.89Z" fill="#081A6B"/>
<path d="M2564.69 272.102C2549.11 286.563 2528.89 293.305 2507.13 293.305C2450.83 293.305 2427.02 256.808 2426.8 219.691C2426.59 182.575 2452.34 144.457 2507.13 144.457C2527.79 144.345 2547.7 152.156 2562.76 166.279L2543.67 183.599C2533.6 174.706 2520.55 169.904 2507.11 170.139C2470.5 170.139 2454.6 195.844 2454.91 219.691C2455.22 243.538 2469.64 268.005 2507.11 268.005C2521.17 267.996 2534.76 262.853 2545.29 253.544L2564.69 272.102Z" fill="#081A6B"/>
<path d="M2689.7 174.643C2684.52 166.019 2670.23 157.8 2653.78 157.8C2632.57 157.8 2622.4 166.662 2622.4 177.907C2622.4 191.081 2637.98 194.75 2656.17 196.965C2687.77 200.849 2717.21 209.068 2717.21 245.16C2717.21 278.87 2687.34 293.354 2653.54 293.354C2622.52 293.354 2598.8 283.825 2587.53 256.166L2611.4 243.85C2618.13 260.526 2635.67 267.84 2654.07 267.84C2672.04 267.84 2688.91 261.574 2688.91 245.16C2688.91 230.866 2674 225.053 2653.85 222.885C2622.83 219.216 2594.31 210.974 2594.31 177.073C2594.31 145.96 2625.05 133.214 2652.97 133C2676.57 133 2701.03 139.694 2712.51 163.041L2689.7 174.643Z" fill="#081A6B"/>
<path d="M1176.98 142.147V169.735L1068.13 169.02V142.147H1176.98Z" fill="#081A6B"/>
<path d="M956.923 142.026V266.932H1034.87V293.304H928.357V142.026H956.923Z" fill="#A20202"/>
<path d="M1293.22 141.98H1262.2L1194.14 293.329H1225.16L1277.66 173.88L1330.02 293.329H1361.24L1293.22 141.98Z" fill="#A20202"/>
<path d="M832.087 141.98H801.062L733 293.329H764.024L816.527 173.88L868.886 293.329H900.101L832.087 141.98Z" fill="#A20202"/>
<path d="M1176.98 209.734V237.298H1096.65V293.33H1068.13V209.734H1176.98Z" fill="#A20202"/>
<path d="M2931.35 147.149H2958.51V230.054C2958.57 239.136 2956.78 248.134 2953.24 256.498C2949.87 264.485 2945.01 271.761 2938.92 277.939C2932.63 284.232 2925.16 289.224 2916.94 292.631C2908.72 296.037 2899.9 297.791 2891 297.791C2882.09 297.791 2873.28 296.037 2865.06 292.631C2856.83 289.224 2849.36 284.232 2843.08 277.939C2836.99 271.761 2832.13 264.485 2828.76 256.498C2825.21 248.137 2823.41 239.137 2823.48 230.054V147.149H2850.64V230.316C2850.64 241.013 2854.9 251.272 2862.47 258.836C2870.05 266.4 2880.33 270.649 2891.04 270.649C2901.76 270.649 2912.04 266.4 2919.61 258.836C2927.19 251.272 2931.45 241.013 2931.45 230.316L2931.35 147.149Z" fill="#081A6B"/>
<path d="M3107.83 180.551C3102.37 171.951 3087.26 163.875 3069.89 163.875C3047.48 163.875 3036.74 172.713 3036.74 183.91C3036.74 197.037 3053.2 200.586 3072.42 202.969C3105.83 206.852 3136.85 215.023 3136.85 250.973C3136.85 284.563 3105.3 299 3069.62 299C3036.93 299 3011.8 289.471 2999.91 261.955L3025.04 249.686C3032.2 266.362 3050.65 273.509 3070.1 273.509C3089.05 273.509 3106.9 267.268 3106.9 250.901C3106.9 236.607 3091.12 230.889 3069.86 228.745C3037.17 225.077 3006.98 216.834 3006.98 183.076C3006.98 152.106 3039.46 139.384 3069.03 139.17C3093.97 139.17 3119.79 145.841 3131.91 169.092L3107.83 180.551Z" fill="#081A6B"/>
<path d="M3277.94 143.194H3246.91L3178.85 294.639H3209.88L3262.38 175.189L3314.72 294.639H3345.95L3277.94 143.194Z" fill="#A20202"/>
<path d="M2975.19 296.068C2982.88 296.068 2982.88 284.156 2975.19 284.156C2967.51 284.156 2967.51 296.068 2975.19 296.068Z" fill="#081A6B"/>
<path d="M3157.47 296.068C3165.15 296.068 3165.15 284.156 3157.47 284.156C3149.78 284.156 3149.78 296.068 3157.47 296.068Z" fill="#A20202"/>
<path d="M3346 294.853H3313.88L3246.89 143.194H3277.94L3346 294.853Z" fill="#081A6B"/>
</svg>
